<svg width="16" height="16" viewBox="0 0 16 16" fill="none" xmlns="http://www.w3.org/2000/svg">
<path d="M13.8784 1H12.4783V2.40005C12.4783 2.68006 12.245 2.86673 12.0116 2.86673C11.7783 2.86673 11.5449 2.68006 11.5449 2.40005V1H4.07803V2.40005C4.07803 2.68006 3.84469 2.86673 3.61135 2.86673C3.37801 2.86673 3.14467 2.68006 3.14467 2.40005V1H1.74462C1.0446 1 0.53125 1.60669 0.53125 2.40005V4.0801H15.4651V2.40005C15.4651 1.60669 14.625 1 13.8784 1ZM0.53125 5.06013V13.6004C0.53125 14.4404 1.0446 15.0005 1.79129 15.0005H13.925C14.6717 15.0005 15.5117 14.3938 15.5117 13.6004V5.06013H0.53125ZM4.68472 12.9004H3.56468C3.37801 12.9004 3.19134 12.7604 3.19134 12.527V11.3603C3.19134 11.1737 3.33134 10.987 3.56468 10.987H4.73139C4.91806 10.987 5.10473 11.127 5.10473 11.3603V12.527C5.05807 12.7604 4.91806 12.9004 4.68472 12.9004ZM4.68472 8.70025H3.56468C3.37801 8.70025 3.19134 8.56025 3.19134 8.32691V7.1602C3.19134 6.97353 3.33134 6.78686 3.56468 6.78686H4.73139C4.91806 6.78686 5.10473 6.92686 5.10473 7.1602V8.32691C5.05807 8.56025 4.91806 8.70025 4.68472 8.70025ZM8.41818 12.9004H7.25147C7.0648 12.9004 6.87813 12.7604 6.87813 12.527V11.3603C6.87813 11.1737 7.01813 10.987 7.25147 10.987H8.41818C8.60485 10.987 8.79152 11.127 8.79152 11.3603V12.527C8.79152 12.7604 8.65152 12.9004 8.41818 12.9004ZM8.41818 8.70025H7.25147C7.0648 8.70025 6.87813 8.56025 6.87813 8.32691V7.1602C6.87813 6.97353 7.01813 6.78686 7.25147 6.78686H8.41818C8.60485 6.78686 8.79152 6.92686 8.79152 7.1602V8.32691C8.79152 8.56025 8.65152 8.70025 8.41818 8.70025ZM12.1516 12.9004H10.9849C10.7983 12.9004 10.6116 12.7604 10.6116 12.527V11.3603C10.6116 11.1737 10.7516 10.987 10.9849 10.987H12.1516C12.3383 10.987 12.525 11.127 12.525 11.3603V12.527C12.525 12.7604 12.385 12.9004 12.1516 12.9004ZM12.1516 8.70025H10.9849C10.7983 8.70025 10.6116 8.56025 10.6116 8.32691V7.1602C10.6116 6.97353 10.7516 6.78686 10.9849 6.78686H12.1516C12.3383 6.78686 12.525 6.92686 12.525 7.1602V8.32691C12.525 8.56025 12.385 8.70025 12.1516 8.70025Z" fill="url(#paint0_linear_17112_142803)"/>
<defs>
<linearGradient id="paint0_linear_17112_142803" x1="1.06334" y1="-1.33341" x2="15.7206" y2="-0.066322" gradientUnits="userSpaceOnUse">
<stop stop-color="#FF741F"/>
<stop offset="0.525" stop-color="#EC5100"/>
</linearGradient>
</defs>
</svg>
