<svg xmlns="http://www.w3.org/2000/svg" width="66" height="38" viewBox="0 0 66 38" fill="none">
	<g clip-path="url(#clip0_936_8147)">
		<path d="M40.7629 13.5568C40.7747 13.5567 40.7863 13.5593 40.7968 13.5645C40.8074 13.5696 40.8167 13.5771 40.8239 13.5863C40.8312 13.5956 40.8362 13.6064 40.8387 13.6179C40.8412 13.6295 40.841 13.6414 40.8381 13.6529C40.3486 15.6517 39.2716 17.2192 37.6072 18.3552C36.519 19.097 35.1282 19.5711 33.8312 19.6316C31.7061 19.7294 29.862 19.0864 28.299 17.7024C26.9162 16.4768 25.9899 14.7202 25.7855 12.9227C25.549 10.8461 26.046 8.98695 27.2763 7.34508C28.3138 5.95995 29.6565 5.03584 31.3044 4.57275C33.9409 3.83275 36.7481 4.54517 38.7113 6.46811C38.7309 6.48726 38.7573 6.49783 38.7846 6.49749C38.812 6.49716 38.8381 6.48596 38.8573 6.46633L41.008 4.29169C41.0145 4.28518 41.0196 4.27744 41.023 4.26894C41.0264 4.26043 41.0282 4.25132 41.0281 4.24214C41.028 4.23296 41.0261 4.22388 41.0225 4.21544C41.0189 4.207 41.0137 4.19936 41.0071 4.19296C40.6603 3.85676 40.3091 3.54813 39.9534 3.26707C38.5762 2.17605 37.0138 1.4734 35.2662 1.15914C33.4578 0.834205 31.686 0.953684 29.9508 1.51758C28.0796 2.12505 26.3703 3.28842 25.1176 4.75241C23.5841 6.54252 22.7197 8.61339 22.5245 10.965C22.3511 13.0605 22.7401 15.0312 23.6914 16.877C24.9831 19.3843 27.1471 21.2423 29.7969 22.1744C30.3843 22.3808 30.9771 22.5302 31.5751 22.6227C33.6955 22.9494 35.723 22.6936 37.6576 21.8551C39.8066 20.923 41.5955 19.2749 42.7412 17.2595C43.7964 15.4035 44.2614 13.3926 44.1364 11.2265C44.1169 10.8957 44.0865 10.563 44.0453 10.2286C44.0437 10.2153 44.0375 10.2031 44.0277 10.1942C44.0179 10.1854 44.0052 10.1805 43.9922 10.1806L36.0492 10.1832C35.9831 10.1832 35.951 10.15 35.9527 10.0836C35.9651 9.71302 35.8489 9.44945 35.6042 9.29292C35.4856 9.21702 35.3202 9.17936 35.1078 9.17996C33.953 9.18352 32.7262 9.18292 31.4274 9.17818C30.8656 9.17551 30.6471 9.59532 30.6497 10.1023C30.6556 11.2117 30.6559 12.3757 30.6506 13.5942C30.648 14.1207 30.8921 14.4907 31.4601 14.4934C32.7288 14.4987 33.9497 14.4969 35.1229 14.488C35.2302 14.4874 35.3393 14.4762 35.4502 14.4542C35.8076 14.3849 35.9678 13.9259 35.9616 13.6093C35.9604 13.5743 35.9772 13.5568 36.012 13.5568H40.7629Z"
		      stroke="white" stroke-width="2"></path>
		<path d="M7.78462 33.9968L7.78639 35.1939C7.78639 35.2236 7.77637 35.2494 7.75631 35.2713C7.72269 35.3087 7.68642 35.3407 7.64749 35.3674C6.50444 36.1536 5.02607 36.4978 3.79985 35.8236C3.01304 35.3902 2.52409 34.6647 2.33299 33.6472C2.19143 32.8954 2.17964 32.1352 2.2976 31.3667C2.50197 30.0353 3.34776 29.1023 4.6943 28.8746C6.01519 28.6513 7.21929 29.1352 7.68111 30.488C7.68513 30.4996 7.69313 30.5093 7.70367 30.5155C7.71421 30.5217 7.7266 30.524 7.73862 30.5218L9.708 30.1518C9.79294 30.1358 9.82449 30.0857 9.80267 30.0015C9.38066 28.3632 8.20929 27.3305 6.58318 27.0779C5.48613 26.9078 4.51323 26.9347 3.66449 27.1589C1.72607 27.6694 0.439691 29.2428 0.097305 31.2155C-0.0115154 31.839 -0.00266887 32.6555 0.0371435 33.2247C0.091996 34.0051 0.335884 34.7996 0.768806 35.6084C1.57036 37.1071 3.15755 37.8853 4.81993 38.0143C6.275 38.1269 7.68082 37.8062 9.03739 37.0519C9.3376 36.8853 9.61983 36.6867 9.88406 36.456C9.93655 36.4098 9.9628 36.3517 9.9628 36.2817C9.95808 34.8806 9.95897 33.5019 9.96546 32.1459C9.96546 32.1353 9.96126 32.1251 9.9538 32.1176C9.94633 32.1101 9.9362 32.1058 9.92564 32.1058L5.34988 32.1067C5.34307 32.1067 5.33655 32.1094 5.33174 32.114C5.32692 32.1187 5.32422 32.125 5.32422 32.1316L5.32511 33.8927C5.32511 33.9017 5.32855 33.9103 5.33469 33.9166C5.34083 33.9229 5.34916 33.9265 5.35784 33.9265L7.71739 33.9301C7.76221 33.9301 7.78462 33.9523 7.78462 33.9968Z"
		      stroke="white" stroke-width="2"></path>
		<path d="M23.0449 27.199C23.0449 27.185 23.0394 27.1717 23.0296 27.1619C23.0198 27.152 23.0066 27.1465 22.9927 27.1465H21.0463C21.0325 27.1465 21.0192 27.152 21.0094 27.1619C20.9996 27.1717 20.9941 27.185 20.9941 27.199V37.8027C20.9941 37.8166 20.9996 37.8299 21.0094 37.8398C21.0192 37.8496 21.0325 37.8551 21.0463 37.8551H22.9927C23.0066 37.8551 23.0198 37.8496 23.0296 37.8398C23.0394 37.8299 23.0449 37.8166 23.0449 37.8027V27.199Z"
		      stroke="white" stroke-width="2"></path>
		<path d="M44.5235 30.9772V27.1927C44.5235 27.1804 44.5186 27.1687 44.51 27.16C44.5014 27.1513 44.4897 27.1464 44.4775 27.1464L42.5337 27.1411C42.4995 27.1411 42.4824 27.158 42.4824 27.1918L42.4833 37.8231C42.4833 37.8318 42.4868 37.8402 42.4929 37.8464C42.499 37.8525 42.5074 37.856 42.516 37.856L44.4987 37.8524C44.5019 37.8524 44.5052 37.8518 44.5082 37.8505C44.5112 37.8492 44.5139 37.8473 44.5162 37.8449C44.5185 37.8425 44.5203 37.8396 44.5216 37.8365C44.5228 37.8334 44.5235 37.83 44.5235 37.8266C44.5217 36.3763 44.5241 34.974 44.5305 33.6197C44.5341 32.8637 44.7022 32.0258 45.4303 31.6861C46.0505 31.3961 46.9396 31.4246 47.2909 32.1228C47.3855 32.3087 47.3908 32.5239 47.4147 32.7294C47.4318 32.877 47.4413 33.0264 47.443 33.1776C47.4613 34.6683 47.4652 36.2079 47.4545 37.7964C47.454 37.8326 47.4719 37.8507 47.5085 37.8507L49.4646 37.8524C49.4733 37.8524 49.4816 37.8491 49.4878 37.8431C49.4939 37.8371 49.4974 37.8289 49.4974 37.8204C49.5003 36.1981 49.5003 34.5574 49.4974 32.8984C49.4962 32.5064 49.462 32.1417 49.3947 31.8044C49.1912 30.7833 48.5324 30.1732 47.4183 29.9739C46.3336 29.78 45.3303 30.1758 44.5819 31.0003C44.5429 31.043 44.5235 31.0353 44.5235 30.9772Z"
		      stroke="white" stroke-width="2"></path>
		<path d="M61.8736 27.1836C61.8736 27.173 61.8694 27.1628 61.8619 27.1553C61.8545 27.1478 61.8443 27.1436 61.8338 27.1436H59.8679C59.8627 27.1436 59.8575 27.1446 59.8527 27.1466C59.8479 27.1486 59.8435 27.1516 59.8398 27.1553C59.8361 27.159 59.8332 27.1634 59.8312 27.1683C59.8292 27.1731 59.8281 27.1783 59.8281 27.1836V37.8157C59.8281 37.821 59.8292 37.8262 59.8312 37.8311C59.8332 37.8359 59.8361 37.8403 59.8398 37.844C59.8435 37.8478 59.8479 37.8507 59.8527 37.8527C59.8575 37.8547 59.8627 37.8558 59.8679 37.8558H61.8338C61.8443 37.8558 61.8545 37.8515 61.8619 37.844C61.8694 37.8365 61.8736 37.8264 61.8736 37.8157V27.1836Z"
		      stroke="white" stroke-width="2"></path>
		<path d="M65.9761 27.1942C65.9761 27.1805 65.9707 27.1674 65.9611 27.1577C65.9515 27.148 65.9384 27.1426 65.9248 27.1426H64.0103C63.9967 27.1426 63.9836 27.148 63.974 27.1577C63.9644 27.1674 63.959 27.1805 63.959 27.1942V37.8032C63.959 37.81 63.9603 37.8167 63.9629 37.8229C63.9655 37.8292 63.9692 37.8349 63.974 37.8397C63.9788 37.8445 63.9844 37.8483 63.9907 37.8509C63.9969 37.8535 64.0036 37.8548 64.0103 37.8548H65.9248C65.9316 37.8548 65.9382 37.8535 65.9445 37.8509C65.9507 37.8483 65.9563 37.8445 65.9611 37.8397C65.9659 37.8349 65.9697 37.8292 65.9722 37.8229C65.9748 37.8167 65.9761 37.81 65.9761 37.8032V27.1942Z"
		      stroke="white" stroke-width="2"></path>
		<path d="M30.3032 36.8261L30.3024 37.7706C30.3024 37.8246 30.3289 37.8516 30.382 37.8516L32.1558 37.8525C32.169 37.8525 32.1816 37.8472 32.1909 37.8379C32.2002 37.8285 32.2054 37.8159 32.2054 37.8027L32.2072 27.2167C32.2072 27.1984 32.1998 27.1807 32.1867 27.1677C32.1736 27.1547 32.1558 27.1474 32.1373 27.1474L30.2112 27.1465C30.1788 27.1465 30.1626 27.1625 30.1626 27.1945V30.8838C30.1626 30.9473 30.1405 30.9565 30.0962 30.9114C29.5132 30.3146 28.832 29.9419 27.9764 29.9322C26.8658 29.9197 25.9899 30.3626 25.3488 31.261C24.6534 32.2358 24.5641 33.7478 24.7348 34.9307C24.8932 36.0336 25.3957 36.9693 26.3176 37.5759C27.65 38.4519 29.3327 38.0295 30.2564 36.8101C30.2876 36.7686 30.3032 36.7739 30.3032 36.8261Z"
		      stroke="white" stroke-width="2"></path>
		<path d="M11.7117 35.6073C12.308 37.371 14.0836 38.1555 15.8486 38.0168C17.7304 37.8691 19.1893 36.3918 19.3778 34.508C19.4954 33.3295 19.2521 32.2026 18.4984 31.2998C17.8932 30.5758 17.1191 30.1391 16.176 29.9897C12.7167 29.4418 10.6536 32.481 11.7117 35.6073Z"
		      stroke="white" stroke-width="2"></path>
		<path d="M35.671 32.0691C35.6746 31.298 37.1158 31.3736 37.6201 31.4768C38.0524 31.5639 38.3452 31.8402 38.4986 32.3057C38.5023 32.3168 38.5098 32.3262 38.5197 32.3321C38.5297 32.338 38.5413 32.34 38.5526 32.3377L40.3892 31.9935C40.3955 31.9923 40.4015 31.9898 40.4068 31.9861C40.4121 31.9824 40.4166 31.9776 40.4199 31.9721C40.4232 31.9665 40.4254 31.9604 40.4262 31.9539C40.427 31.9475 40.4265 31.941 40.4246 31.9348C40.0967 30.874 39.3986 30.2434 38.3305 30.043C37.5685 29.9007 36.792 29.888 36.001 30.0048C34.6925 30.1978 33.6264 31.1459 33.7777 32.569C33.8615 33.3499 34.2873 33.9126 35.0553 34.2571C35.8834 34.6289 36.9556 34.8717 37.9235 35.086C38.3455 35.1794 38.726 35.3378 38.6145 35.883C38.4747 36.5687 37.2998 36.5856 36.769 36.5127C36.1267 36.4249 35.7206 36.0499 35.5507 35.3876C35.5465 35.3717 35.5367 35.3579 35.5231 35.3488C35.5096 35.3398 35.4932 35.3362 35.4773 35.3386L33.5335 35.6384C33.5271 35.6394 33.521 35.6418 33.5156 35.6453C33.5102 35.6488 33.5055 35.6535 33.5019 35.6589C33.4983 35.6643 33.4959 35.6705 33.4948 35.6769C33.4937 35.6833 33.494 35.6899 33.4955 35.6962C33.8096 36.9103 34.7916 37.7018 36.0116 37.9322C36.4835 38.0211 37.0096 38.0517 37.59 38.0238C38.6233 37.974 39.5523 37.6814 40.2034 36.8604C40.5685 36.3997 40.729 35.8518 40.6847 35.2168C40.5998 34.0001 39.6496 33.5064 38.6145 33.2138C38.0848 33.0644 37.4915 32.9129 36.8344 32.7593C36.5944 32.703 36.3487 32.6262 36.0975 32.529C35.8931 32.4489 35.6701 32.3226 35.671 32.0691Z"
		      stroke="white" stroke-width="2"></path>
		<path d="M53.1244 34.5811L58.1081 34.5802C58.1452 34.5802 58.1644 34.5618 58.1656 34.525C58.2284 32.9107 57.832 31.1924 56.3519 30.367C55.614 29.9552 54.6789 29.8431 53.8579 29.9819C52.4016 30.2282 51.3523 31.3827 51.0763 32.8298C50.8976 33.7667 50.9165 34.6362 51.1329 35.4385C51.6717 37.4397 53.2633 38.1886 55.1743 38.0134C56.5916 37.8835 57.5533 37.1376 58.0594 35.7756C58.0616 35.7699 58.0625 35.7639 58.0621 35.7578C58.0616 35.7518 58.0599 35.7459 58.0569 35.7406C58.0539 35.7353 58.0499 35.7308 58.0449 35.7273C58.04 35.7238 58.0344 35.7215 58.0284 35.7204L56.0847 35.3931C56.0658 35.39 56.0464 35.394 56.0304 35.4044C56.0143 35.4147 56.0028 35.4307 55.998 35.4491C55.9597 35.595 55.9042 35.7323 55.8317 35.861C55.3221 36.7673 54.049 36.6436 53.4686 35.8921C53.2156 35.5648 53.0787 35.1506 53.0581 34.6496C53.0563 34.6039 53.0784 34.5811 53.1244 34.5811Z"
		      stroke="white" stroke-width="2"></path>
		<path d="M28.1157 31.5534C27.3416 31.7127 26.8939 32.4607 26.8045 33.1953C26.6577 34.4067 26.7913 36.3955 28.4598 36.4088C29.2826 36.415 29.8851 35.78 30.063 35.0169C30.2163 34.3563 30.2166 33.6546 30.0638 32.9116C29.8692 31.9679 29.0933 31.3533 28.1157 31.5534Z"
		      stroke="white" stroke-width="2"></path>
		<path d="M16.9021 32.4141C16.4465 31.7257 15.6556 31.4518 14.8726 31.6963C14.0551 31.9516 13.6305 32.737 13.5615 33.5793C13.5066 34.2445 13.5738 34.7951 13.7632 35.2309C14.3214 36.5161 15.9396 36.7678 16.8137 35.6703C17.448 34.8743 17.4595 33.2573 16.9021 32.4141Z"
		      stroke="white" stroke-width="2"></path>
		<path d="M53.1283 33.3173L56.0956 33.3066C56.1044 33.3064 56.1127 33.3027 56.1188 33.2964C56.1249 33.2901 56.1283 33.2816 56.1283 33.2728V33.1768C56.1276 32.9581 56.0886 32.7417 56.0138 32.5399C55.9389 32.3382 55.8296 32.155 55.6921 32.0009C55.5546 31.8468 55.3915 31.7247 55.2123 31.6417C55.033 31.5587 54.841 31.5164 54.6473 31.5171H54.5624C54.1713 31.5186 53.7969 31.6954 53.5214 32.0086C53.246 32.3219 53.0922 32.7459 53.0938 33.1874V33.2835C53.0938 33.288 53.0947 33.2925 53.0964 33.2966C53.0981 33.3008 53.1007 33.3046 53.1039 33.3077C53.1071 33.3109 53.1109 33.3133 53.1151 33.315C53.1193 33.3166 53.1238 33.3174 53.1283 33.3173Z"
		      stroke="white" stroke-width="2"></path>
		<path d="M42.2422 13.8582H36.9809C36.9423 13.8582 36.9237 13.8775 36.925 13.9161C36.9319 14.265 36.7545 14.7707 36.3587 14.8472C36.2359 14.8713 36.1151 14.8838 35.9962 14.8844C34.697 14.8942 33.345 14.8962 31.94 14.8903C31.311 14.8873 31.0406 14.4796 31.0435 13.8994C31.0494 12.5566 31.0491 11.274 31.0425 10.0514C31.0396 9.49278 31.2816 9.03016 31.9037 9.0331C33.342 9.03833 34.7006 9.03898 35.9795 9.03506C36.2147 9.03441 36.3979 9.0759 36.5292 9.15954C36.8003 9.33204 36.9289 9.62248 36.9152 10.0309C36.9133 10.104 36.9488 10.1406 37.022 10.1406L45.8183 10.1377C45.8328 10.1376 45.8468 10.143 45.8576 10.1527C45.8685 10.1625 45.8754 10.176 45.8771 10.1906C45.9228 10.5591 45.9564 10.9257 45.978 11.2903C46.1165 13.6772 45.6014 15.8933 44.4329 17.9385C43.1641 20.1594 41.183 21.9756 38.8032 23.0027C36.6608 23.9267 34.4155 24.2086 32.0674 23.8486C31.405 23.7466 30.7486 23.582 30.098 23.3546C27.1637 22.3274 24.7672 20.28 23.3367 17.517C22.2831 15.4829 21.8524 13.3113 22.0444 11.0022C22.2606 8.41072 23.2178 6.12868 24.9161 4.15603C26.3034 2.54276 28.1963 1.26076 30.2685 0.591341C32.1902 -0.0300542 34.1523 -0.161717 36.1549 0.196353C38.0903 0.542662 39.8205 1.31696 41.3457 2.51923C41.7395 2.82895 42.1285 3.16905 42.5126 3.53954C42.5198 3.54658 42.5256 3.555 42.5296 3.5643C42.5336 3.57361 42.5357 3.58361 42.5358 3.59373C42.5359 3.60385 42.534 3.61389 42.5302 3.62326C42.5263 3.63263 42.5207 3.64115 42.5136 3.64833L40.1318 6.04472C40.1105 6.06635 40.0816 6.0787 40.0513 6.07906C40.021 6.07943 39.9918 6.06779 39.9701 6.04668C37.796 3.92766 34.6872 3.14259 31.7676 3.95805C29.9426 4.46836 28.4556 5.48671 27.3067 7.01308C25.9442 8.82237 25.3939 10.8711 25.6558 13.1594C25.8821 15.1402 26.9079 17.076 28.4393 18.4266C30.1702 19.9516 32.2124 20.6602 34.5657 20.5524C36.0021 20.4858 37.5423 19.9634 38.7474 19.146C40.5906 17.894 41.7833 16.1667 42.3254 13.9641C42.3286 13.9515 42.3288 13.9383 42.3261 13.9256C42.3233 13.9129 42.3177 13.901 42.3097 13.8908C42.3017 13.8805 42.2914 13.8723 42.2797 13.8667C42.268 13.861 42.2552 13.8581 42.2422 13.8582Z"
		      fill="#F1B61A"></path>
		<path d="M7.71739 33.9301L5.35784 33.9265C5.34916 33.9265 5.34083 33.9229 5.33469 33.9166C5.32856 33.9103 5.32511 33.9017 5.32511 33.8927L5.32422 32.1316C5.32422 32.125 5.32692 32.1187 5.33174 32.114C5.33655 32.1094 5.34307 32.1067 5.34988 32.1067L9.92564 32.1058C9.9362 32.1058 9.94633 32.1101 9.9538 32.1176C9.96126 32.1251 9.96546 32.1353 9.96546 32.1459C9.95897 33.5019 9.95808 34.8806 9.9628 36.2817C9.9628 36.3517 9.93655 36.4098 9.88406 36.456C9.61983 36.6867 9.3376 36.8853 9.03739 37.0519C7.68082 37.8062 6.275 38.1269 4.81993 38.0143C3.15755 37.8853 1.57036 37.1071 0.768806 35.6084C0.335884 34.7996 0.091996 34.0051 0.0371435 33.2247C-0.00266887 32.6555 -0.0115154 31.839 0.097305 31.2155C0.439691 29.2428 1.72607 27.6694 3.66449 27.1589C4.51323 26.9347 5.48613 26.9078 6.58318 27.0779C8.20929 27.3305 9.38066 28.3632 9.80267 30.0015C9.82449 30.0857 9.79294 30.1358 9.708 30.1518L7.73862 30.5218C7.7266 30.524 7.71421 30.5217 7.70367 30.5155C7.69313 30.5093 7.68513 30.4996 7.68111 30.488C7.21929 29.1352 6.01519 28.6513 4.6943 28.8746C3.34776 29.1023 2.50197 30.0353 2.2976 31.3667C2.17964 32.1352 2.19143 32.8954 2.33299 33.6472C2.52409 34.6647 3.01304 35.3902 3.79985 35.8236C5.02607 36.4978 6.50444 36.1536 7.64749 35.3674C7.68642 35.3407 7.72269 35.3087 7.75631 35.2713C7.77637 35.2494 7.78639 35.2236 7.78639 35.1939L7.78462 33.9968C7.78462 33.9523 7.76221 33.9301 7.71739 33.9301Z"
		      fill="#010101"></path>
		<path d="M22.9927 27.1465H21.0463C21.0175 27.1465 20.9941 27.17 20.9941 27.199V37.8027C20.9941 37.8316 21.0175 37.8551 21.0463 37.8551H22.9927C23.0216 37.8551 23.0449 37.8316 23.0449 37.8027V27.199C23.0449 27.17 23.0216 27.1465 22.9927 27.1465Z"
		      fill="#010101"></path>
		<path d="M44.5819 31.0003C45.3303 30.1758 46.3336 29.78 47.4183 29.9739C48.5324 30.1732 49.1912 30.7833 49.3947 31.8044C49.462 32.1417 49.4962 32.5064 49.4974 32.8984C49.5003 34.5574 49.5003 36.1981 49.4974 37.8204C49.4974 37.8289 49.4939 37.8371 49.4878 37.8431C49.4816 37.8491 49.4733 37.8524 49.4646 37.8524L47.5085 37.8507C47.4719 37.8507 47.454 37.8326 47.4545 37.7964C47.4652 36.2079 47.4613 34.6683 47.443 33.1776C47.4413 33.0264 47.4318 32.877 47.4147 32.7294C47.3908 32.5239 47.3855 32.3087 47.2909 32.1228C46.9396 31.4246 46.0505 31.3961 45.4303 31.6861C44.7022 32.0258 44.5341 32.8637 44.5305 33.6197C44.5241 34.974 44.5217 36.3763 44.5235 37.8266C44.5235 37.83 44.5228 37.8334 44.5216 37.8365C44.5203 37.8396 44.5185 37.8425 44.5162 37.8449C44.5139 37.8473 44.5112 37.8492 44.5082 37.8505C44.5052 37.8518 44.5019 37.8524 44.4987 37.8524L42.516 37.856C42.5074 37.856 42.499 37.8525 42.4929 37.8464C42.4868 37.8402 42.4833 37.8318 42.4833 37.8231L42.4824 27.1918C42.4824 27.158 42.4995 27.1411 42.5337 27.1411L44.4775 27.1464C44.4897 27.1464 44.5014 27.1513 44.51 27.16C44.5186 27.1687 44.5235 27.1804 44.5235 27.1927V30.9772C44.5235 31.0353 44.5429 31.043 44.5819 31.0003Z"
		      fill="#010101"></path>
		<path d="M61.8338 27.1436H59.8679C59.846 27.1436 59.8281 27.1615 59.8281 27.1836V37.8157C59.8281 37.8378 59.846 37.8558 59.8679 37.8558H61.8338C61.8558 37.8558 61.8736 37.8378 61.8736 37.8157V27.1836C61.8736 27.1615 61.8558 27.1436 61.8338 27.1436Z"
		      fill="#010101"></path>
		<path d="M65.9268 27.1431H64.0123C63.9839 27.1431 63.9609 27.1662 63.9609 27.1947V37.8037C63.9609 37.8322 63.9839 37.8553 64.0123 37.8553H65.9268C65.9551 37.8553 65.9781 37.8322 65.9781 37.8037V27.1947C65.9781 27.1662 65.9551 27.1431 65.9268 27.1431Z"
		      fill="#010101"></path>
		<path d="M30.2583 36.8101C29.3347 38.0295 27.6519 38.4519 26.3195 37.5759C25.3977 36.9693 24.8951 36.0336 24.7368 34.9307C24.566 33.7478 24.6554 32.2358 25.3508 31.261C25.9919 30.3626 26.8678 29.9197 27.9784 29.9322C28.8339 29.9419 29.5151 30.3146 30.0982 30.9114C30.1424 30.9565 30.1645 30.9473 30.1645 30.8838V27.1945C30.1645 27.1625 30.1807 27.1465 30.2132 27.1465L32.1392 27.1474C32.1578 27.1474 32.1755 27.1547 32.1886 27.1677C32.2017 27.1807 32.2091 27.1984 32.2091 27.2167L32.2073 37.8027C32.2073 37.8159 32.2021 37.8285 32.1928 37.8379C32.1835 37.8472 32.1709 37.8525 32.1578 37.8525L30.3839 37.8516C30.3309 37.8516 30.3043 37.8246 30.3043 37.7706L30.3052 36.8261C30.3052 36.7739 30.2896 36.7686 30.2583 36.8101ZM28.1173 31.5536C27.3432 31.7128 26.8955 32.4608 26.8061 33.1955C26.6593 34.4068 26.7929 36.3956 28.4614 36.4089C29.2842 36.4152 29.8867 35.7801 30.0646 35.017C30.2179 34.3564 30.2182 33.6547 30.0654 32.9117C29.8708 31.968 29.0949 31.3535 28.1173 31.5536Z"
		      fill="#010101"></path>
		<path d="M15.8486 38.0168C14.0836 38.1555 12.308 37.371 11.7117 35.6073C10.6536 32.481 12.7167 29.4418 16.176 29.9897C17.1191 30.1391 17.8932 30.5758 18.4984 31.2998C19.2521 32.2026 19.4954 33.3295 19.3778 34.508C19.1893 36.3918 17.7304 37.8691 15.8486 38.0168ZM16.9023 32.4143C16.4467 31.7259 15.6558 31.4519 14.8728 31.6965C14.0553 31.9518 13.6306 32.7371 13.5616 33.5794C13.5068 34.2447 13.574 34.7953 13.7633 35.2311C14.3216 36.5163 15.9397 36.768 16.8138 35.6705C17.4482 34.8744 17.4597 33.2575 16.9023 32.4143Z"
		      fill="#010101"></path>
		<path d="M35.673 32.0691C35.6721 32.3226 35.895 32.4489 36.0994 32.529C36.3507 32.6262 36.5963 32.703 36.8364 32.7593C37.4934 32.9129 38.0868 33.0644 38.6164 33.2138C39.6516 33.5064 40.6017 34.0001 40.6867 35.2168C40.7309 35.8518 40.5705 36.3997 40.2054 36.8604C39.5542 37.6814 38.6253 37.974 37.5919 38.0238C37.0116 38.0517 36.4854 38.0211 36.0136 37.9322C34.7936 37.7018 33.8115 36.9103 33.4975 35.6962C33.4959 35.6899 33.4957 35.6833 33.4968 35.6769C33.4979 35.6705 33.5003 35.6643 33.5039 35.6589C33.5075 35.6535 33.5121 35.6488 33.5175 35.6453C33.523 35.6418 33.5291 35.6394 33.5355 35.6384L35.4792 35.3386C35.4952 35.3362 35.5115 35.3398 35.5251 35.3488C35.5386 35.3579 35.5485 35.3717 35.5527 35.3876C35.7225 36.0499 36.1286 36.4249 36.7709 36.5127C37.3017 36.5856 38.4767 36.5687 38.6164 35.883C38.7279 35.3378 38.3475 35.1794 37.9255 35.086C36.9576 34.8717 35.8853 34.6289 35.0572 34.2571C34.2893 33.9126 33.8634 33.3499 33.7797 32.569C33.6284 31.1459 34.6945 30.1978 36.003 30.0048C36.7939 29.888 37.5704 29.9007 38.3324 30.043C39.4006 30.2434 40.0986 30.874 40.4266 31.9348C40.4284 31.941 40.429 31.9475 40.4281 31.9539C40.4273 31.9604 40.4252 31.9665 40.4218 31.9721C40.4185 31.9776 40.4141 31.9824 40.4088 31.9861C40.4035 31.9898 40.3975 31.9923 40.3912 31.9935L38.5545 32.3377C38.5433 32.34 38.5316 32.338 38.5217 32.3321C38.5118 32.3262 38.5042 32.3168 38.5005 32.3057C38.3472 31.8402 38.0543 31.5639 37.622 31.4768C37.1177 31.3736 35.6765 31.298 35.673 32.0691Z"
		      fill="#010101"></path>
		<path d="M53.0581 34.6496C53.0787 35.1506 53.2156 35.5648 53.4686 35.8921C54.049 36.6436 55.3221 36.7673 55.8317 35.861C55.9042 35.7323 55.9597 35.595 55.998 35.4491C56.0028 35.4307 56.0143 35.4147 56.0304 35.4044C56.0464 35.394 56.0658 35.39 56.0847 35.3931L58.0284 35.7204C58.0344 35.7215 58.04 35.7238 58.0449 35.7273C58.0499 35.7308 58.0539 35.7353 58.0569 35.7406C58.0599 35.7459 58.0616 35.7518 58.0621 35.7578C58.0625 35.7639 58.0616 35.7699 58.0594 35.7756C57.5533 37.1376 56.5916 37.8835 55.1743 38.0134C53.2633 38.1886 51.6717 37.4397 51.1329 35.4385C50.9165 34.6362 50.8976 33.7667 51.0763 32.8298C51.3523 31.3827 52.4016 30.2282 53.8579 29.9819C54.6789 29.8431 55.614 29.9552 56.3519 30.367C57.832 31.1924 58.2284 32.9107 58.1656 34.525C58.1644 34.5618 58.1452 34.5802 58.1081 34.5802L53.1244 34.5811C53.0784 34.5811 53.0563 34.6039 53.0581 34.6496ZM53.1289 33.3172L56.0962 33.3065C56.105 33.3063 56.1133 33.3026 56.1194 33.2963C56.1255 33.29 56.1289 33.2815 56.1289 33.2727V33.1767C56.1282 32.958 56.0892 32.7416 56.0144 32.5398C55.9395 32.3381 55.8302 32.1549 55.6927 32.0008C55.5552 31.8467 55.3921 31.7246 55.2128 31.6416C55.0336 31.5586 54.8416 31.5163 54.6479 31.517H54.563C54.1719 31.5185 53.7974 31.6953 53.522 32.0086C53.2466 32.3218 53.0928 32.7458 53.0944 33.1873V33.2834C53.0944 33.2879 53.0952 33.2924 53.097 33.2965C53.0987 33.3007 53.1013 33.3045 53.1045 33.3076C53.1077 33.3108 53.1115 33.3132 53.1157 33.3149C53.1199 33.3165 53.1244 33.3173 53.1289 33.3172Z"
		      fill="#010101"></path>
	</g>
	<defs>
		<clipPath id="clip0_936_8147">
			<rect width="66" height="38" fill="white"></rect>
		</clipPath>
	</defs>
</svg>