<svg xmlns="http://www.w3.org/2000/svg" width="41" height="39" viewBox="0 0 41 39" fill="none">
	<g clip-path="url(#clip0_936_8299)">
		<path d="M23.2069 3.51483C22.9865 3.63342 22.7224 3.75551 22.5895 3.52186C22.0071 2.49765 21.4339 1.48457 20.87 0.482617C20.8081 0.37311 20.7323 0.275608 20.6424 0.190111C20.6279 0.176209 20.6102 0.165781 20.5909 0.159637C20.5716 0.153494 20.5511 0.151802 20.5311 0.154691C20.5111 0.15758 20.492 0.164974 20.4754 0.176297C20.4588 0.18762 20.4451 0.202567 20.4354 0.219976L18.5991 3.49112C18.5694 3.54414 18.5199 3.58371 18.4611 3.60142C18.4023 3.61913 18.3388 3.61359 18.2841 3.58598C17.2597 3.07124 16.2217 2.51522 15.1699 1.91791C15.0138 1.82919 14.7077 1.66406 14.5391 1.79933C14.5113 1.82189 14.4924 1.85318 14.4854 1.88791C14.4784 1.92264 14.4838 1.95868 14.5007 1.98994C14.6268 2.22184 14.7541 2.44993 14.8826 2.67421C15.6357 3.98126 16.3951 5.28977 17.1607 6.59975C17.3846 6.98186 17.6693 7.0328 18.1047 7.03105C19.6425 7.02578 21.1299 7.02783 22.5672 7.03719C22.8688 7.03895 23.1796 7.05066 23.4996 7.07233C23.919 7.10044 24.0832 6.68144 24.2492 6.38543C24.9684 5.09946 25.7435 3.70017 26.5745 2.18758C26.6019 2.13722 26.6182 2.08686 26.6236 2.0365C26.6266 2.00941 26.6226 1.98203 26.6121 1.95684C26.6016 1.93165 26.5848 1.90944 26.5634 1.89224C26.5419 1.87505 26.5164 1.86341 26.4892 1.85838C26.462 1.85335 26.434 1.85509 26.4076 1.86345C26.1983 1.92904 25.9865 2.01951 25.7723 2.13488C24.9169 2.59398 24.0618 3.05397 23.2069 3.51483Z"
		      stroke="white" stroke-width="2"></path>
		<path d="M19.8977 10.564C20.2823 10.954 20.8587 10.9839 21.246 10.5833C22.0175 9.78283 22.7825 9.00662 23.541 8.25471C23.5993 8.19733 23.6555 8.12881 23.7096 8.04917C23.7697 7.96016 23.748 7.89955 23.6445 7.86734C23.585 7.84919 23.5249 7.83982 23.4642 7.83923C21.4268 7.81932 19.4792 7.80586 17.6214 7.79883C17.5357 7.79883 17.4593 7.82752 17.3921 7.88491C17.3829 7.89263 17.3754 7.90214 17.3702 7.91285C17.3649 7.92356 17.3619 7.93524 17.3614 7.94718C17.3609 7.95911 17.3629 7.97105 17.3672 7.98224C17.3716 7.99344 17.3782 8.00366 17.3867 8.01228C18.1761 8.81923 19.0131 9.66981 19.8977 10.564Z"
		      stroke="white" stroke-width="2"></path>
		<path d="M17.1401 8.46784C17.0591 8.38761 16.9627 8.32406 16.8564 8.28087C16.7502 8.23769 16.6363 8.21575 16.5214 8.21632C16.4064 8.21689 16.2928 8.23997 16.187 8.28421C16.0812 8.32844 15.9854 8.39296 15.9052 8.47399L13.4469 10.959C13.2883 11.1193 13.2 11.3346 13.2012 11.5584C13.2024 11.7822 13.2928 11.9966 13.4531 12.1553L15.9917 14.6728C16.0726 14.753 16.1688 14.8165 16.2747 14.8597C16.3807 14.903 16.4944 14.9251 16.6091 14.9248C16.7238 14.9244 16.8373 14.9017 16.943 14.8578C17.0487 14.814 17.1446 14.7499 17.2249 14.6693L19.6966 12.1887C19.8563 12.0285 19.9453 11.8128 19.9445 11.5883C19.9437 11.3639 19.853 11.1488 19.6921 10.9897L17.1401 8.46784Z"
		      stroke="white" stroke-width="2"></path>
		<path d="M27.7825 12.2426C27.9413 12.0799 28.0295 11.8626 28.0281 11.6369C28.0268 11.4112 27.9361 11.1949 27.7753 11.034L25.3197 8.57973C25.2377 8.4978 25.1399 8.43276 25.0321 8.38839C24.9243 8.34402 24.8086 8.32121 24.6918 8.32129C24.5749 8.32137 24.4592 8.34434 24.3515 8.38886C24.2438 8.43338 24.1461 8.49856 24.0642 8.58061L21.6336 11.0146C21.471 11.1774 21.3802 11.3967 21.3809 11.625C21.3815 11.8532 21.4736 12.072 21.6371 12.2338L24.132 14.7056C24.2148 14.7876 24.3133 14.8525 24.4219 14.8964C24.5305 14.9404 24.6469 14.9625 24.7642 14.9615C24.8816 14.9605 24.9976 14.9365 25.1054 14.8907C25.2132 14.845 25.3106 14.7785 25.392 14.6951L27.7825 12.2426Z"
		      stroke="white" stroke-width="2"></path>
		<path d="M12.6161 18.9571C12.6399 19.0285 12.6845 19.0859 12.7499 19.1293C12.7627 19.1379 12.7776 19.1431 12.793 19.1445C12.8085 19.1459 12.8241 19.1434 12.8383 19.1372C13.0655 19.0376 13.2606 18.9006 13.4236 18.7261C14.0601 18.0433 14.8105 17.2805 15.6749 16.4378C16.0764 16.047 16.1175 15.5823 15.6972 15.1501C14.9816 14.4152 14.1297 13.5749 13.1416 12.6291C12.7597 12.2646 12.5313 12.5 12.4064 12.89C12.1714 13.6285 12.0271 14.3206 11.9736 14.9665C11.9263 15.534 12.0495 16.0988 12.0735 16.6662C12.1057 17.4383 12.3751 18.2271 12.6161 18.9571Z"
		      stroke="white" stroke-width="2"></path>
		<path d="M27.628 18.4158C27.9159 18.7068 28.1869 18.9443 28.4409 19.1281C28.4495 19.1344 28.4602 19.1373 28.4709 19.1361C28.4816 19.135 28.4916 19.13 28.4989 19.122C28.6524 18.9516 28.7645 18.758 28.8353 18.5414C29.3897 16.8431 29.4263 15.1001 28.9451 13.3123C28.8832 13.0839 28.7951 12.8631 28.6809 12.65C28.6564 12.6043 28.6172 12.5679 28.5693 12.5466C28.5215 12.5253 28.4679 12.5202 28.4168 12.5323C28.3139 12.5569 28.2265 12.604 28.1545 12.6737C27.5156 13.2886 26.7711 14.0337 25.921 14.9092C25.4838 15.3598 25.1046 15.8508 25.6756 16.4332C26.3014 17.0709 26.9522 17.7318 27.628 18.4158Z"
		      stroke="white" stroke-width="2"></path>
		<path d="M18.5219 14.6417C18.4327 14.5492 18.3301 14.4933 18.2141 14.474C18.0097 14.4406 17.7956 14.6408 17.8973 14.8438C17.9366 14.9228 17.9856 14.996 18.0445 15.0634C18.0862 15.112 18.0862 15.1606 18.0445 15.2092C17.941 15.3275 17.8387 15.4586 17.7376 15.6027C17.5761 15.8328 17.9419 16.1174 18.0927 16.2553C18.1041 16.2659 18.1113 16.2801 18.113 16.2954C18.1146 16.3107 18.1106 16.3261 18.1016 16.3388C18.0151 16.46 17.8652 16.6093 17.8946 16.7657C17.9294 16.9537 18.1846 16.9967 18.339 16.9053C18.5398 16.7885 18.7548 16.8614 18.861 17.0687C18.8771 17.1009 18.8756 17.132 18.8565 17.1618C18.7646 17.3094 18.6165 17.4166 18.7263 17.6116C18.8958 17.9129 19.1733 17.6318 19.3482 17.5325C19.3636 17.5238 19.3815 17.5205 19.3991 17.5232C19.4166 17.5259 19.4327 17.5345 19.4446 17.5475L19.6712 17.7943C19.6998 17.8247 19.7013 17.8566 19.6757 17.89C19.5668 18.0314 19.3625 18.2475 19.5392 18.4171C19.7149 18.5866 19.9175 18.461 20.071 18.3433C20.0919 18.3271 20.1181 18.3191 20.1447 18.3207C20.1713 18.3223 20.1965 18.3335 20.2155 18.3521C20.3913 18.5269 20.6242 18.7552 20.8946 18.6384C21.0469 18.5728 21.1947 18.4806 21.338 18.3617C21.3561 18.347 21.3787 18.3387 21.402 18.3383C21.4254 18.3378 21.4481 18.3451 21.4665 18.3591C21.5528 18.4247 21.6465 18.4742 21.7476 18.5075C21.7857 18.5198 21.8217 18.516 21.8556 18.4961C21.9526 18.4399 22.0156 18.3611 22.0448 18.2598C22.0555 18.2218 22.0501 18.186 22.0287 18.1527L21.8502 17.8751C21.8408 17.8606 21.8372 17.8431 21.84 17.8261C21.8428 17.8091 21.8518 17.7937 21.8654 17.7829L22.0894 17.6037C22.1036 17.5923 22.1211 17.5854 22.1396 17.584C22.158 17.5826 22.1766 17.5867 22.1929 17.5958C22.3651 17.6933 22.4793 17.861 22.6952 17.6977C22.9201 17.5281 22.7354 17.3068 22.6149 17.1522C22.5834 17.1118 22.587 17.0746 22.6256 17.0406L22.8603 16.8342C22.876 16.8205 22.8961 16.8126 22.917 16.8119C22.9379 16.8113 22.9583 16.8179 22.9745 16.8307C23.1039 16.9343 23.277 17.0907 23.4466 16.9519C23.6607 16.7762 23.4707 16.547 23.4055 16.352C23.4014 16.3403 23.4003 16.3279 23.4024 16.3156C23.4044 16.3033 23.4095 16.2917 23.4171 16.2817C23.4748 16.205 23.5361 16.1268 23.6009 16.0472C23.9106 15.6686 23.634 15.4604 23.3796 15.1986C23.3338 15.1518 23.3365 15.1079 23.3877 15.0669C23.531 14.9533 23.5819 14.8212 23.5403 14.6707C23.4912 14.495 23.302 14.4309 23.1503 14.5319C23.0896 14.5723 23.0281 14.613 22.9656 14.654C22.9335 14.6751 22.8996 14.6777 22.8639 14.6619C22.7461 14.6069 22.667 14.5255 22.6265 14.4177C22.6081 14.3697 22.6155 14.3258 22.6488 14.286C22.7702 14.1393 22.9272 13.9241 22.6881 13.7774C22.4873 13.6544 22.366 13.7844 22.2072 13.8731C22.0019 13.9891 21.869 13.7756 21.811 13.6193C21.7991 13.5859 21.8038 13.5554 21.8252 13.5279C21.935 13.3909 22.0813 13.195 21.8779 13.0536C21.7393 12.957 21.609 12.969 21.4871 13.0896C21.4525 13.124 21.4056 13.1438 21.3564 13.1446C21.3072 13.1454 21.2596 13.1273 21.2238 13.094C20.8 12.6978 20.626 12.7303 20.1977 13.087C20.1685 13.111 20.1355 13.1183 20.0986 13.1089C20.0368 13.0925 19.977 13.0682 19.9193 13.036C19.7328 12.9315 19.499 12.9789 19.4053 13.1757C19.3892 13.2091 19.3907 13.2416 19.4098 13.2732C19.4627 13.3634 19.5335 13.4415 19.6221 13.5077C19.6319 13.5149 19.64 13.5241 19.6459 13.5346C19.6517 13.5452 19.6552 13.5568 19.6562 13.5688C19.6571 13.5807 19.6554 13.5928 19.6512 13.6041C19.6471 13.6154 19.6405 13.6256 19.632 13.6342L19.4044 13.8643C19.3687 13.8995 19.3307 13.9024 19.2902 13.8731C19.1296 13.7563 18.8548 13.5745 18.7147 13.8275C18.6129 14.0093 18.7441 14.1718 18.8208 14.3369C18.8363 14.3697 18.8319 14.3996 18.8075 14.4265L18.6094 14.6408C18.5808 14.6719 18.5517 14.6722 18.5219 14.6417Z"
		      stroke="white" stroke-width="2"></path>
		<path d="M20.0312 20.0982C20.0901 19.8698 19.8875 19.5009 19.7251 19.341C18.9327 18.5563 18.1413 17.7613 17.3507 16.9562C16.735 16.329 16.1505 16.6803 15.6223 17.2267C14.8918 17.9821 14.1943 18.693 13.5298 19.3594C13.4275 19.4619 13.3451 19.599 13.2826 19.7705C13.1756 20.0613 13.3701 20.3784 13.5378 20.612C13.9215 21.149 14.3028 21.6046 14.6818 21.9788C15.0684 22.3606 15.6526 22.7843 16.4343 23.2499C16.8144 23.4774 17.1918 23.2296 17.4595 22.9468C18.1371 22.23 18.8548 21.5004 19.6127 20.7578C19.7965 20.5787 19.966 20.3476 20.0312 20.0982Z"
		      stroke="white" stroke-width="2"></path>
		<path d="M27.9653 20.3352C28.1857 19.9751 28.0429 19.5956 27.7716 19.3163C27.0221 18.5451 26.2574 17.77 25.4775 16.9912C25.0117 16.5262 24.5388 16.5391 24.0587 17.0298C23.4252 17.6775 22.712 18.3872 21.919 19.1591C21.7703 19.3037 21.6552 19.4442 21.5737 19.5807C21.364 19.9303 21.4943 20.4108 21.7869 20.705C22.6394 21.5588 23.4668 22.3699 24.2693 23.1382C24.424 23.2857 24.5825 23.3385 24.7449 23.2963C24.9347 23.2465 25.2006 23.106 25.5427 22.8747C26.5361 22.2001 27.3436 21.3536 27.9653 20.3352Z"
		      stroke="white" stroke-width="2"></path>
		<path d="M21.0275 21.0088C20.7253 20.9414 20.4606 21.0225 20.2333 21.2521C19.4856 22.0051 18.7173 22.7796 17.9285 23.5754C17.8387 23.6662 17.858 23.7124 17.9865 23.7142C19.88 23.737 21.8035 23.7095 23.757 23.6316C23.7647 23.6312 23.7721 23.6286 23.7783 23.6242C23.7845 23.6198 23.7893 23.6137 23.7921 23.6067C23.7949 23.5997 23.7956 23.592 23.7942 23.5846C23.7927 23.5772 23.7891 23.5703 23.7838 23.5649C23.0134 22.8065 22.2449 22.0397 21.4781 21.2644C21.3466 21.1314 21.1964 21.0462 21.0275 21.0088Z"
		      stroke="white" stroke-width="2"></path>
		<path d="M20.823 13.5336C20.7951 13.5061 20.7572 13.4907 20.7177 13.4907C20.6782 13.4907 20.6404 13.5061 20.6124 13.5336L18.4459 15.6593C18.432 15.673 18.421 15.6893 18.4135 15.7072C18.4061 15.7251 18.4023 15.7442 18.4023 15.7636C18.4024 15.7829 18.4064 15.8021 18.414 15.8199C18.4217 15.8378 18.4328 15.8539 18.4468 15.8675L20.6553 18.0125C20.6833 18.0396 20.721 18.0547 20.7603 18.0546C20.7996 18.0544 20.8372 18.039 20.865 18.0117L23.019 15.8903C23.0468 15.8627 23.0623 15.8254 23.0621 15.7865C23.0619 15.7476 23.0461 15.7104 23.0181 15.683L20.823 13.5336Z"
		      stroke="white" stroke-width="2"></path>
		<path d="M21.7955 16.0612C21.8657 15.9906 21.9045 15.8955 21.9035 15.7967C21.9024 15.698 21.8615 15.6037 21.7899 15.5345L20.984 14.7577C20.9485 14.7235 20.9065 14.6965 20.8604 14.6782C20.8143 14.66 20.765 14.6509 20.7153 14.6514C20.6657 14.6519 20.6166 14.662 20.5709 14.6812C20.5252 14.7004 20.4838 14.7283 20.449 14.7632L19.6998 15.5163C19.6296 15.5869 19.5908 15.682 19.5918 15.7808C19.5929 15.8796 19.6337 15.9739 19.7054 16.043L20.5113 16.8198C20.5468 16.8541 20.5888 16.8811 20.6349 16.8993C20.681 16.9176 20.7303 16.9267 20.7799 16.9262C20.8296 16.9257 20.8787 16.9155 20.9244 16.8963C20.9701 16.8771 21.0115 16.8493 21.0463 16.8143L21.7955 16.0612Z"
		      stroke="white" stroke-width="2"></path>
		<path d="M21.2039 15.8235C21.2083 15.8191 21.2118 15.814 21.2142 15.8083C21.2165 15.8027 21.2177 15.7966 21.2177 15.7905C21.2177 15.7844 21.2165 15.7783 21.2141 15.7727C21.2117 15.7671 21.2082 15.7619 21.2038 15.7576L20.7803 15.3422C20.7715 15.3335 20.7594 15.3286 20.7469 15.3286C20.7343 15.3286 20.7223 15.3336 20.7135 15.3423L20.2814 15.7691C20.277 15.7735 20.2735 15.7786 20.2711 15.7843C20.2688 15.7899 20.2676 15.796 20.2676 15.8021C20.2676 15.8082 20.2688 15.8142 20.2712 15.8199C20.2736 15.8255 20.2771 15.8307 20.2815 15.835L20.705 16.2504C20.7139 16.2591 20.7259 16.264 20.7384 16.264C20.751 16.264 20.763 16.259 20.7718 16.2503L21.2039 15.8235Z"
		      stroke="white" stroke-width="2"></path>
		<path d="M22.5914 3.52186C22.7244 3.75551 22.9885 3.63342 23.2089 3.51483C24.0637 3.05397 24.9189 2.59398 25.7743 2.13488C25.9884 2.01951 26.2002 1.92904 26.4096 1.86345C26.4359 1.85509 26.464 1.85335 26.4912 1.85838C26.5184 1.86341 26.5438 1.87505 26.5653 1.89224C26.5868 1.90944 26.6035 1.93165 26.614 1.95684C26.6246 1.98203 26.6285 2.00941 26.6255 2.0365C26.6202 2.08686 26.6038 2.13722 26.5765 2.18758C25.7454 3.70017 24.9703 5.09946 24.2511 6.38543C24.0851 6.68144 23.921 7.10044 23.5016 7.07233C23.1815 7.05066 22.8707 7.03895 22.5691 7.0372C21.1319 7.02783 19.6444 7.02578 18.1067 7.03105C17.6712 7.0328 17.3866 6.98186 17.1626 6.59975C16.397 5.28977 15.6377 3.98126 14.8846 2.67421C14.7561 2.44993 14.6288 2.22184 14.5026 1.98994C14.4858 1.95868 14.4804 1.92264 14.4874 1.88791C14.4943 1.85318 14.5133 1.82189 14.541 1.79933C14.7097 1.66406 15.0157 1.82919 15.1719 1.91791C16.2236 2.51522 17.2617 3.07124 18.286 3.58598C18.3408 3.61359 18.4043 3.61913 18.4631 3.60142C18.5219 3.58371 18.5714 3.54414 18.601 3.49112L20.4374 0.219976C20.4471 0.202567 20.4608 0.18762 20.4774 0.176297C20.494 0.164974 20.513 0.15758 20.533 0.154691C20.5531 0.151802 20.5735 0.153494 20.5928 0.159637C20.6122 0.165781 20.6298 0.176209 20.6444 0.190111C20.7342 0.275608 20.8101 0.37311 20.8719 0.482617C21.4359 1.48457 22.009 2.49765 22.5914 3.52186Z"
		      fill="#3A73FF"></path>
		<path d="M21.2499 10.5833C20.8626 10.9839 20.2862 10.954 19.9016 10.564C19.017 9.66981 18.18 8.81923 17.3906 8.01228C17.3821 8.00366 17.3755 7.99344 17.3712 7.98224C17.3668 7.97105 17.3648 7.95911 17.3653 7.94718C17.3658 7.93524 17.3688 7.92356 17.3741 7.91285C17.3793 7.90214 17.3868 7.89263 17.396 7.88491C17.4632 7.82752 17.5396 7.79883 17.6253 7.79883C19.4831 7.80586 21.4307 7.81932 23.4681 7.83923C23.5288 7.83982 23.5889 7.84919 23.6484 7.86734C23.7519 7.89955 23.7736 7.96016 23.7135 8.04917C23.6594 8.12881 23.6032 8.19733 23.5449 8.25471C22.7864 9.00662 22.0214 9.78283 21.2499 10.5833Z"
		      fill="#3A73FF"></path>
		<path d="M17.1421 8.46833L19.6941 10.9902C19.855 11.1493 19.9456 11.3644 19.9465 11.5888C19.9473 11.8133 19.8582 12.029 19.6986 12.1892L17.2269 14.6698C17.1465 14.7504 17.0507 14.8145 16.945 14.8583C16.8393 14.9022 16.7257 14.9249 16.611 14.9253C16.4963 14.9256 16.3827 14.9035 16.2767 14.8602C16.1707 14.817 16.0745 14.7534 15.9937 14.6733L13.4551 12.1558C13.2948 11.9971 13.2043 11.7827 13.2031 11.5589C13.202 11.3351 13.2902 11.1198 13.4488 10.9595L15.9071 8.47448C15.9874 8.39345 16.0831 8.32893 16.1889 8.2847C16.2947 8.24046 16.4084 8.21738 16.5233 8.21681C16.6382 8.21624 16.7521 8.23818 16.8584 8.28136C16.9646 8.32454 17.0611 8.3881 17.1421 8.46833Z"
		      fill="#3A73FF"></path>
		<path d="M27.7844 12.2426L25.3939 14.6951C25.3126 14.7785 25.2152 14.845 25.1074 14.8907C24.9996 14.9365 24.8836 14.9605 24.7662 14.9615C24.6488 14.9625 24.5324 14.9404 24.4238 14.8964C24.3153 14.8525 24.2167 14.7876 24.134 14.7056L21.6391 12.2338C21.4756 12.072 21.3835 11.8532 21.3828 11.625C21.3821 11.3967 21.4729 11.1774 21.6355 11.0146L24.0662 8.58061C24.1481 8.49856 24.2457 8.43338 24.3535 8.38886C24.4612 8.34434 24.5769 8.32137 24.6937 8.32129C24.8106 8.32121 24.9263 8.34402 25.0341 8.38839C25.1419 8.43276 25.2396 8.4978 25.3216 8.57973L27.7773 11.034C27.938 11.1949 28.0287 11.4112 28.0301 11.6369C28.0314 11.8626 27.9433 12.0799 27.7844 12.2426Z"
		      fill="#3A73FF"></path>
		<path d="M12.6161 18.9571C12.3751 18.2271 12.1057 17.4383 12.0735 16.6662C12.0495 16.0988 11.9263 15.534 11.9736 14.9665C12.0271 14.3206 12.1714 13.6285 12.4064 12.89C12.5313 12.5 12.7597 12.2646 13.1416 12.6291C14.1297 13.5749 14.9816 14.4152 15.6972 15.1501C16.1175 15.5823 16.0764 16.047 15.6749 16.4378C14.8105 17.2805 14.0601 18.0433 13.4236 18.7261C13.2606 18.9006 13.0655 19.0376 12.8383 19.1372C12.8241 19.1434 12.8085 19.1459 12.793 19.1445C12.7776 19.1431 12.7627 19.1379 12.7499 19.1293C12.6845 19.0859 12.6399 19.0285 12.6161 18.9571Z"
		      fill="#3A73FF"></path>
		<path d="M27.63 18.4162C26.9542 17.7323 26.3034 17.0714 25.6776 16.4337C25.1065 15.8513 25.4857 15.3603 25.923 14.9097C26.7731 14.0342 27.5175 13.2891 28.1564 12.6742C28.2284 12.6045 28.3159 12.5574 28.4188 12.5328C28.4698 12.5207 28.5235 12.5258 28.5713 12.5471C28.6191 12.5684 28.6584 12.6048 28.6829 12.6505C28.7971 12.8636 28.8851 13.0844 28.947 13.3128C29.4283 15.1006 29.3917 16.8436 28.8373 18.5419C28.7665 18.7585 28.6543 18.9521 28.5009 19.1225C28.4936 19.1304 28.4836 19.1355 28.4728 19.1366C28.4621 19.1378 28.4514 19.1349 28.4429 19.1286C28.1888 18.9447 27.9179 18.7073 27.63 18.4162Z"
		      fill="#3A73FF"></path>
		<path d="M18.6113 14.6408L18.8094 14.4265C18.8338 14.3996 18.8383 14.3697 18.8228 14.3369C18.7461 14.1718 18.6149 14.0093 18.7166 13.8275C18.8567 13.5745 19.1315 13.7563 19.2922 13.8731C19.3326 13.9024 19.3707 13.8995 19.4064 13.8643L19.6339 13.6342C19.6424 13.6256 19.649 13.6154 19.6532 13.6041C19.6574 13.5928 19.6591 13.5807 19.6581 13.5688C19.6572 13.5568 19.6537 13.5452 19.6478 13.5346C19.6419 13.5241 19.6339 13.5149 19.6241 13.5077C19.5355 13.4415 19.4647 13.3634 19.4117 13.2732C19.3927 13.2416 19.3912 13.2091 19.4073 13.1757C19.501 12.9789 19.7347 12.9315 19.9212 13.036C19.9789 13.0682 20.0387 13.0925 20.1006 13.1089C20.1375 13.1183 20.1705 13.111 20.1996 13.087C20.6279 12.7303 20.8019 12.6978 21.2258 13.094C21.2615 13.1273 21.3091 13.1454 21.3583 13.1446C21.4075 13.1438 21.4544 13.124 21.489 13.0896C21.611 12.969 21.7412 12.957 21.8798 13.0536C22.0833 13.195 21.937 13.3909 21.8272 13.5279C21.8058 13.5554 21.801 13.5859 21.8129 13.6193C21.8709 13.7756 22.0039 13.9891 22.2091 13.8731C22.3679 13.7844 22.4893 13.6544 22.6901 13.7774C22.9292 13.9241 22.7722 14.1393 22.6508 14.286C22.6175 14.3258 22.6101 14.3697 22.6285 14.4177C22.6689 14.5255 22.7481 14.6069 22.8658 14.6619C22.9015 14.6777 22.9354 14.6751 22.9676 14.654C23.03 14.613 23.0916 14.5723 23.1523 14.5319C23.304 14.4309 23.4931 14.495 23.5422 14.6707C23.5839 14.8212 23.533 14.9533 23.3896 15.0669C23.3385 15.1079 23.3358 15.1518 23.3816 15.1986C23.6359 15.4604 23.9125 15.6686 23.6029 16.0472C23.5381 16.1268 23.4768 16.205 23.4191 16.2817C23.4114 16.2917 23.4063 16.3033 23.4043 16.3156C23.4023 16.3279 23.4034 16.3403 23.4075 16.352C23.4726 16.547 23.6627 16.7762 23.4485 16.9519C23.279 17.0907 23.1059 16.9343 22.9765 16.8307C22.9602 16.8179 22.9398 16.8113 22.9189 16.8119C22.8981 16.8126 22.878 16.8205 22.8623 16.8342L22.6276 17.0406C22.5889 17.0746 22.5854 17.1118 22.6169 17.1522C22.7374 17.3068 22.9221 17.5281 22.6972 17.6977C22.4813 17.861 22.367 17.6933 22.1948 17.5958C22.1786 17.5867 22.16 17.5826 22.1415 17.584C22.1231 17.5854 22.1056 17.5923 22.0913 17.6037L21.8674 17.7829C21.8538 17.7937 21.8447 17.8091 21.8419 17.8261C21.8391 17.8431 21.8428 17.8606 21.8522 17.8751L22.0306 18.1527C22.0521 18.186 22.0574 18.2218 22.0467 18.2598C22.0176 18.3611 21.9545 18.4399 21.8575 18.4961C21.8236 18.516 21.7876 18.5198 21.7496 18.5075C21.6484 18.4742 21.5547 18.4247 21.4685 18.3591C21.4501 18.3451 21.4273 18.3378 21.404 18.3383C21.3806 18.3387 21.3581 18.347 21.34 18.3617C21.1966 18.4806 21.0488 18.5728 20.8965 18.6384C20.6262 18.7552 20.3933 18.5269 20.2175 18.3521C20.1985 18.3335 20.1733 18.3223 20.1467 18.3207C20.12 18.3191 20.0938 18.3271 20.0729 18.3433C19.9194 18.461 19.7169 18.5866 19.5411 18.4171C19.3644 18.2475 19.5688 18.0314 19.6776 17.89C19.7032 17.8566 19.7017 17.8247 19.6732 17.7943L19.4465 17.5475C19.4346 17.5345 19.4186 17.5259 19.401 17.5232C19.3835 17.5205 19.3655 17.5238 19.3502 17.5325C19.1753 17.6318 18.8978 17.9129 18.7282 17.6116C18.6185 17.4166 18.7666 17.3094 18.8585 17.1618C18.8775 17.132 18.879 17.1009 18.863 17.0687C18.7568 16.8614 18.5417 16.7885 18.341 16.9053C18.1866 16.9967 17.9314 16.9537 17.8966 16.7657C17.8671 16.6093 18.017 16.46 18.1036 16.3388C18.1125 16.3261 18.1166 16.3107 18.1149 16.2954C18.1133 16.2801 18.1061 16.2659 18.0947 16.2553C17.9439 16.1174 17.578 15.8328 17.7395 15.6027C17.8407 15.4586 17.943 15.3275 18.0465 15.2092C18.0881 15.1606 18.0881 15.112 18.0465 15.0634C17.9876 14.996 17.9385 14.9228 17.8993 14.8438C17.7975 14.6408 18.0117 14.4406 18.216 14.474C18.332 14.4933 18.4346 14.5492 18.5239 14.6417C18.5536 14.6722 18.5828 14.6719 18.6113 14.6408ZM20.8242 13.5341C20.7963 13.5066 20.7584 13.4912 20.719 13.4912C20.6795 13.4912 20.6416 13.5066 20.6137 13.5341L18.4471 15.6598C18.4332 15.6735 18.4222 15.6897 18.4148 15.7076C18.4073 15.7255 18.4035 15.7447 18.4036 15.7641C18.4037 15.7834 18.4076 15.8025 18.4153 15.8204C18.4229 15.8382 18.434 15.8544 18.448 15.868L20.6565 18.013C20.6845 18.0401 20.7223 18.0552 20.7615 18.055C20.8008 18.0549 20.8384 18.0394 20.8662 18.0121L23.0202 15.8908C23.048 15.8632 23.0635 15.8258 23.0633 15.787C23.0632 15.7481 23.0473 15.7109 23.0193 15.6835L20.8242 13.5341Z"
		      fill="#3A73FF"></path>
		<path d="M21.0463 16.8143C21.0115 16.8493 20.9701 16.8771 20.9244 16.8963C20.8787 16.9155 20.8296 16.9257 20.7799 16.9262C20.7303 16.9267 20.681 16.9176 20.6349 16.8993C20.5888 16.8811 20.5468 16.8541 20.5113 16.8198L19.7054 16.043C19.6337 15.9739 19.5929 15.8796 19.5918 15.7808C19.5908 15.682 19.6296 15.5869 19.6998 15.5163L20.449 14.7632C20.4838 14.7283 20.5252 14.7004 20.5709 14.6812C20.6166 14.662 20.6657 14.6519 20.7153 14.6514C20.765 14.6509 20.8143 14.66 20.8604 14.6782C20.9065 14.6965 20.9485 14.7235 20.984 14.7577L21.7899 15.5345C21.8615 15.6037 21.9024 15.698 21.9035 15.7967C21.9045 15.8955 21.8657 15.9906 21.7955 16.0612L21.0463 16.8143ZM21.2036 15.8238C21.2079 15.8195 21.2114 15.8144 21.2138 15.8087C21.2162 15.8031 21.2174 15.797 21.2174 15.7909C21.2174 15.7848 21.2161 15.7787 21.2137 15.7731C21.2113 15.7674 21.2078 15.7623 21.2034 15.758L20.78 15.3426C20.7711 15.3339 20.759 15.329 20.7465 15.329C20.734 15.329 20.7219 15.334 20.7131 15.3427L20.281 15.7695C20.2766 15.7739 20.2731 15.779 20.2708 15.7846C20.2684 15.7903 20.2672 15.7964 20.2672 15.8025C20.2672 15.8086 20.2685 15.8146 20.2708 15.8203C20.2732 15.8259 20.2767 15.8311 20.2811 15.8354L20.7046 16.2508C20.7135 16.2595 20.7255 16.2644 20.7381 16.2644C20.7506 16.2643 20.7626 16.2594 20.7715 16.2507L21.2036 15.8238Z"
		      fill="#3A73FF"></path>
		<path d="M19.727 19.341C19.8894 19.5009 20.092 19.8698 20.0331 20.0982C19.968 20.3476 19.7984 20.5787 19.6146 20.7578C18.8568 21.5004 18.139 22.23 17.4615 22.9468C17.1938 23.2296 16.8163 23.4774 16.4362 23.2499C15.6546 22.7843 15.0704 22.3606 14.6837 21.9788C14.3048 21.6046 13.9235 21.149 13.5398 20.612C13.372 20.3784 13.1775 20.0613 13.2846 19.7705C13.347 19.599 13.4294 19.4619 13.5318 19.3594C14.1962 18.693 14.8937 17.9821 15.6242 17.2267C16.1525 16.6803 16.7369 16.329 17.3526 16.9562C18.1432 17.7613 18.9347 18.5563 19.727 19.341Z"
		      fill="#3A73FF"></path>
		<path d="M27.7736 19.3163C28.0449 19.5956 28.1876 19.9751 27.9672 20.3352C27.3456 21.3536 26.538 22.2001 25.5446 22.8747C25.2026 23.106 24.9366 23.2465 24.7469 23.2963C24.5845 23.3385 24.426 23.2857 24.2713 23.1382C23.4688 22.3699 22.6413 21.5588 21.7889 20.705C21.4962 20.4108 21.3659 19.9303 21.5756 19.5807C21.6571 19.4442 21.7722 19.3037 21.9209 19.1591C22.7139 18.3872 23.4272 17.6775 24.0607 17.0298C24.5408 16.5391 25.0137 16.5262 25.4795 16.9912C26.2593 17.77 27.0241 18.5451 27.7736 19.3163Z"
		      fill="#3A73FF"></path>
		<path d="M21.0294 21.0092C21.1984 21.0467 21.3486 21.1319 21.48 21.2649C22.2468 22.0402 23.0154 22.807 23.7858 23.5654C23.7911 23.5708 23.7947 23.5777 23.7961 23.5851C23.7976 23.5925 23.7969 23.6002 23.7941 23.6072C23.7912 23.6142 23.7864 23.6203 23.7802 23.6247C23.774 23.6291 23.7666 23.6317 23.759 23.6321C21.8054 23.71 19.8819 23.7375 17.9884 23.7147C17.8599 23.7129 17.8406 23.6667 17.9304 23.5759C18.7192 22.7801 19.4875 22.0056 20.2353 21.2526C20.4625 21.023 20.7272 20.9419 21.0294 21.0092Z"
		      fill="#3A73FF"></path>
	</g>
	<g clip-path="url(#clip1_936_8299)">
		<path d="M25.9131 27.5108C25.9131 27.5024 25.9114 27.4942 25.9082 27.4865C25.9051 27.4788 25.9004 27.4718 25.8945 27.4659C25.8886 27.46 25.8816 27.4553 25.8739 27.4521C25.8661 27.4489 25.8579 27.4473 25.8495 27.4473H24.3565C24.3482 27.4473 24.3399 27.4489 24.3322 27.4521C24.3245 27.4553 24.3175 27.46 24.3116 27.4659C24.3057 27.4718 24.301 27.4788 24.2978 27.4865C24.2946 27.4942 24.293 27.5024 24.293 27.5108V38.0358C24.293 38.0442 24.2946 38.0524 24.2978 38.0601C24.301 38.0678 24.3057 38.0748 24.3116 38.0807C24.3175 38.0866 24.3245 38.0913 24.3322 38.0945C24.3399 38.0977 24.3482 38.0993 24.3565 38.0993H25.8495C25.8579 38.0993 25.8661 38.0977 25.8739 38.0945C25.8816 38.0913 25.8886 38.0866 25.8945 38.0807C25.9004 38.0748 25.9051 38.0678 25.9082 38.0601C25.9114 38.0524 25.9131 38.0442 25.9131 38.0358V27.5108Z"
		      stroke="white" stroke-width="2"></path>
		<path d="M3.94728 28.6147C3.96245 28.3255 3.85701 28.0418 3.65414 27.8261C3.45128 27.6104 3.16761 27.4803 2.86555 27.4645C2.71598 27.4567 2.5664 27.4771 2.42534 27.5247C2.28428 27.5723 2.15451 27.646 2.04344 27.7418C1.93237 27.8375 1.84217 27.9533 1.77799 28.0827C1.71382 28.212 1.67692 28.3522 1.66941 28.4955C1.65423 28.7847 1.75968 29.0684 1.96254 29.2841C2.16541 29.4998 2.44907 29.6299 2.75114 29.6457C2.90071 29.6535 3.05029 29.6331 3.19135 29.5855C3.3324 29.5379 3.46217 29.4642 3.57325 29.3684C3.68432 29.2727 3.77452 29.1569 3.83869 29.0275C3.90287 28.8982 3.93977 28.7579 3.94728 28.6147Z"
		      stroke="white" stroke-width="2"></path>
		<path d="M29.6143 27.5205C29.6143 27.5085 29.6095 27.4969 29.6009 27.4884C29.5924 27.4799 29.5808 27.4751 29.5688 27.4751H28.0396C28.0276 27.4751 28.016 27.4799 28.0075 27.4884C27.9989 27.4969 27.9941 27.5085 27.9941 27.5205V38.0349C27.9941 38.047 27.9989 38.0585 28.0075 38.0671C28.016 38.0756 28.0276 38.0804 28.0396 38.0804H29.5688C29.5808 38.0804 29.5924 38.0756 29.6009 38.0671C29.6095 38.0585 29.6143 38.047 29.6143 38.0349V27.5205Z"
		      stroke="white" stroke-width="2"></path>
		<path d="M7.55492 34.2576C7.55492 34.2086 7.57967 34.1841 7.62917 34.1841C8.52329 34.1876 9.38284 34.1703 10.2078 34.1319C11.6694 34.0644 13.2942 33.7376 13.7779 32.171C14.1819 30.8604 14.0835 29.3125 12.9745 28.4129C12.4741 28.0072 11.7537 27.7733 11.1169 27.7352C10.6014 27.7049 10.0156 27.688 9.35965 27.6844C8.29429 27.6786 7.20953 27.6795 6.10537 27.6871C6.05475 27.6873 6.00626 27.7076 5.97053 27.7435C5.9348 27.7795 5.91473 27.8282 5.91473 27.8789L5.91406 38.0518C5.91406 38.058 5.91531 38.0642 5.91776 38.0699C5.9202 38.0756 5.92378 38.0808 5.92828 38.0851C5.93278 38.0894 5.93811 38.0928 5.94395 38.095C5.94978 38.0972 5.956 38.0982 5.96222 38.0979L7.53485 38.0371C7.54023 38.0369 7.54534 38.0346 7.54908 38.0308C7.55283 38.0269 7.55492 38.0217 7.55492 38.0164V34.2576Z"
		      stroke="white" stroke-width="2"></path>
		<path d="M18.4904 30.3577C16.901 30.4707 15.6943 31.417 15.2321 32.9609C15.035 33.6177 14.9701 34.284 15.0374 34.9599C15.1338 35.9237 15.5643 36.7482 16.3291 37.4335C17.1666 38.1838 18.1827 38.4687 19.3774 38.2883C19.8536 38.2165 20.2677 38.0965 20.6196 37.928C22.1206 37.2096 22.7133 35.5581 22.6323 33.9521C22.5824 32.9594 22.2042 32.0999 21.4978 31.3736C20.7306 30.585 19.5988 30.2789 18.4904 30.3577Z"
		      stroke="white" stroke-width="2"></path>
		<path d="M37.4461 31.1297C35.151 29.4595 31.7328 30.5757 31.3255 33.5117C31.2613 33.9773 31.2588 34.4864 31.3181 35.0389C31.4934 36.6716 32.5556 37.8793 34.1577 38.2088C36.0955 38.6065 38.1304 37.6935 38.7478 35.7159C39.0082 34.8805 39.0236 34.0448 38.7939 33.209C38.5429 32.2942 38.0936 31.6011 37.4461 31.1297Z"
		      stroke="white" stroke-width="2"></path>
		<path d="M3.618 30.5971C3.618 30.594 3.61738 30.5909 3.61616 30.588C3.61494 30.5851 3.61315 30.5825 3.61091 30.5804C3.60866 30.5782 3.60601 30.5765 3.60309 30.5753C3.60017 30.5742 3.59705 30.5737 3.59392 30.5737L2.02665 30.6078C2.02056 30.608 2.01477 30.6105 2.01052 30.6149C2.00628 30.6193 2.0039 30.6251 2.00391 30.6312L2.00524 38.0766C2.00524 38.0797 2.00587 38.0828 2.00709 38.0857C2.0083 38.0886 2.01009 38.0912 2.01234 38.0933C2.01458 38.0955 2.01724 38.0972 2.02016 38.0984C2.02308 38.0995 2.0262 38.1 2.02933 38.1L3.60864 38.0492C3.61473 38.049 3.62052 38.0464 3.62476 38.0421C3.62901 38.0377 3.63138 38.0319 3.63138 38.0258L3.618 30.5971Z"
		      stroke="white" stroke-width="2"></path>
		<path d="M10.703 32.5883C11.9686 32.4359 12.3506 31.674 12.2135 30.483C12.1392 29.8354 11.7526 29.3675 11.1024 29.2499C10.6761 29.1724 10.2121 29.1345 9.71036 29.1363C9.00399 29.1394 8.3043 29.1454 7.6113 29.1543C7.60509 29.1543 7.59914 29.1568 7.59475 29.1612C7.59036 29.1656 7.58789 29.1715 7.58789 29.1777L7.58856 32.6224C7.58856 32.6446 7.59971 32.656 7.622 32.6565C8.67488 32.6678 9.68494 32.7113 10.703 32.5883Z"
		      stroke="white" stroke-width="2"></path>
		<path d="M19.2007 36.9188C20.2155 36.7557 20.7814 35.8662 20.8864 34.865C20.962 34.1465 20.9359 33.3559 20.5686 32.7263C20.0563 31.8481 19.0602 31.4905 18.103 31.8401C17.5772 32.0319 17.1826 32.5111 16.9792 33.0344C16.6334 33.9226 16.6548 35.0668 17.0963 35.9337C17.4923 36.7123 18.3371 37.0572 19.2007 36.9188Z"
		      stroke="white" stroke-width="2"></path>
		<path d="M36.94 35.7032C37.13 35.3449 37.2125 34.9533 37.1875 34.5282C37.1617 34.0902 37.1059 33.6964 37.0203 33.3466C36.7775 32.3508 36.0042 31.508 34.8945 31.7152C34.5021 31.7882 34.1484 31.9634 33.8336 32.2405C32.7553 33.1889 32.7305 34.71 33.364 35.9224C34.2155 37.5525 36.1942 37.1114 36.94 35.7032Z"
		      stroke="white" stroke-width="2"></path>
		<path d="M25.8515 27.4473H24.3585C24.3234 27.4473 24.2949 27.4757 24.2949 27.5108V38.0358C24.2949 38.0709 24.3234 38.0993 24.3585 38.0993H25.8515C25.8866 38.0993 25.915 38.0709 25.915 38.0358V27.5108C25.915 27.4757 25.8866 27.4473 25.8515 27.4473Z"
		      fill="#3A73FF"></path>
		<path d="M2.75305 29.6461C3.38207 29.679 3.9176 29.2174 3.94919 28.6151C3.98079 28.0128 3.49648 27.4978 2.86746 27.4649C2.23844 27.432 1.7029 27.8935 1.67131 28.4959C1.63972 29.0982 2.12403 29.6131 2.75305 29.6461Z"
		      fill="#3A73FF"></path>
		<path d="M29.5707 27.4756H28.0416C28.0165 27.4756 27.9961 27.4959 27.9961 27.521V38.0354C27.9961 38.0605 28.0165 38.0809 28.0416 38.0809H29.5707C29.5958 38.0809 29.6162 38.0605 29.6162 38.0354V27.521C29.6162 27.4959 29.5958 27.4756 29.5707 27.4756Z"
		      fill="#3A73FF"></path>
		<path d="M7.55492 34.2581V38.0168C7.55492 38.0222 7.55283 38.0274 7.54908 38.0313C7.54534 38.0351 7.54023 38.0374 7.53485 38.0376L5.96222 38.0984C5.956 38.0986 5.94978 38.0977 5.94395 38.0955C5.93811 38.0933 5.93278 38.0899 5.92828 38.0856C5.92378 38.0813 5.9202 38.0761 5.91776 38.0704C5.91531 38.0647 5.91406 38.0585 5.91406 38.0523L5.91473 27.8794C5.91473 27.8286 5.9348 27.78 5.97053 27.744C6.00626 27.7081 6.05475 27.6878 6.10537 27.6876C7.20953 27.68 8.29429 27.6791 9.35965 27.6849C10.0156 27.6885 10.6014 27.7054 11.1169 27.7357C11.7537 27.7738 12.4741 28.0077 12.9745 28.4134C14.0835 29.313 14.1819 30.8609 13.7779 32.1715C13.2942 33.7381 11.6694 34.0649 10.2078 34.1324C9.38284 34.1707 8.52329 34.1881 7.62917 34.1846C7.57967 34.1846 7.55492 34.2091 7.55492 34.2581ZM10.7028 32.5886C11.9684 32.4362 12.3504 31.6743 12.2133 30.4833C12.139 29.8356 11.7524 29.3678 11.1022 29.2502C10.6759 29.1726 10.2119 29.1348 9.71017 29.1366C9.00379 29.1397 8.3041 29.1457 7.6111 29.1546C7.6049 29.1546 7.59894 29.1571 7.59455 29.1615C7.59016 29.1658 7.58769 29.1718 7.58769 29.178L7.58836 32.6226C7.58836 32.6449 7.59951 32.6563 7.62181 32.6567C8.67468 32.6681 9.68475 32.7115 10.7028 32.5886Z"
		      fill="#3A73FF"></path>
		<path d="M15.234 32.9614C15.6963 31.4175 16.903 30.4712 18.4923 30.3582C19.6007 30.2793 20.7325 30.5854 21.4998 31.3741C22.2062 32.1004 22.5843 32.9598 22.6343 33.9526C22.7152 35.5586 22.1226 37.2101 20.6215 37.9285C20.2697 38.097 19.8556 38.217 19.3793 38.2888C18.1846 38.4692 17.1686 38.1843 16.3311 37.434C15.5663 36.7487 15.1357 35.9242 15.0394 34.9604C14.9721 34.2845 15.0369 33.6182 15.234 32.9614ZM19.2021 36.9193C20.2168 36.7563 20.7827 35.8667 20.8877 34.8655C20.9633 34.147 20.9372 33.3564 20.57 32.7268C20.0576 31.8486 19.0616 31.491 18.1044 31.8406C17.5786 32.0324 17.1839 32.5116 16.9806 33.0349C16.6348 33.9231 16.6562 35.0674 17.0976 35.9342C17.4936 36.7128 18.3385 37.0577 19.2021 36.9193Z"
		      fill="#3A73FF"></path>
		<path d="M31.3274 33.5117C31.7348 30.5757 35.153 29.4595 37.448 31.1297C38.0955 31.6011 38.5448 32.2942 38.7959 33.209C39.0255 34.0448 39.0102 34.8805 38.7497 35.7159C38.1323 37.6935 36.0975 38.6065 34.1596 38.2088C32.5576 37.8793 31.4953 36.6716 31.3201 35.0389C31.2607 34.4864 31.2632 33.9773 31.3274 33.5117ZM36.9416 35.7032C37.1316 35.345 37.2141 34.9533 37.1891 34.5283C37.1633 34.0903 37.1075 33.6964 37.0219 33.3466C36.7791 32.3508 36.0058 31.508 34.8961 31.7152C34.5037 31.7883 34.15 31.9634 33.8352 32.2405C32.7569 33.1889 32.7321 34.7101 33.3656 35.9224C34.2171 37.5525 36.1958 37.1114 36.9416 35.7032Z"
		      fill="#3A73FF"></path>
		<path d="M3.61996 30.5971L3.63333 38.0258C3.63334 38.0319 3.63096 38.0377 3.62672 38.0421C3.62247 38.0464 3.61668 38.049 3.61059 38.0492L2.03128 38.1C2.02815 38.1 2.02503 38.0995 2.02211 38.0984C2.01919 38.0972 2.01653 38.0955 2.01429 38.0933C2.01204 38.0912 2.01026 38.0886 2.00904 38.0857C2.00782 38.0828 2.0072 38.0797 2.0072 38.0766L2.00586 30.6312C2.00586 30.6251 2.00823 30.6193 2.01248 30.6149C2.01672 30.6105 2.02251 30.608 2.0286 30.6078L3.59587 30.5737C3.599 30.5737 3.60212 30.5742 3.60504 30.5753C3.60796 30.5765 3.61062 30.5782 3.61286 30.5804C3.61511 30.5825 3.61689 30.5851 3.61811 30.588C3.61933 30.5909 3.61996 30.594 3.61996 30.5971Z"
		      fill="#3A73FF"></path>
	</g>
	<defs>
		<clipPath id="clip0_936_8299">
			<rect width="18" height="24" fill="white" transform="translate(11.5)"></rect>
		</clipPath>
		<clipPath id="clip1_936_8299">
			<rect width="41" height="12" fill="white" transform="translate(0 27)"></rect>
		</clipPath>
	</defs>
</svg>